<svg width="421" height="310" viewBox="0 0 421 310" fill="none" xmlns="http://www.w3.org/2000/svg">
<g filter="url(#filter0_bf)">
<path fill-rule="evenodd" clip-rule="evenodd" d="M118.165 44.5422L135.348 39.3872L133.286 36.9814C133.286 36.9814 131.426 34.6455 127.788 35.4757C123.69 36.411 118.165 33.7236 118.165 33.7236V36.9815L111.979 39.3872V50.0408C111.979 52.2403 114.27 58.747 115.416 61.7254L118.165 67.2241L111.979 73.7537L115.416 80.627L107.512 85.0947L95.827 91.968V96.092L107.512 98.4976L124.695 91.968L130.194 85.0947L141.534 88.875L135.348 80.627L145.658 85.0947L139.472 74.441L135.348 73.7537L141.534 61.7254V58.2888C141.534 57.5412 139.366 56.2516 137.388 55.075C136.638 54.6289 135.915 54.1991 135.348 53.8211C133.699 52.7214 127.559 50.8427 124.695 50.0408L118.165 44.5422ZM186.898 58.2888C185.799 58.2888 180.483 57.6015 177.963 57.2578L180.369 53.8211H183.805L191.366 57.2578L186.898 58.2888ZM186.898 39.3872L176.932 42.1365V46.2605C179.223 46.6042 184.149 47.2915 185.524 47.2915H194.115L201.332 44.5422L195.834 42.1365L186.898 39.3872ZM204.425 47.2915V51.7591L207.174 57.2578L209.58 53.8211L211.298 50.0408L204.425 47.2915ZM217.484 51.7591L211.298 55.8831L214.391 58.2888L225.389 63.7874C224.931 61.9545 223.67 58.0826 222.296 57.2578C220.921 56.433 221.723 53.7066 222.296 52.4465L221.265 46.2605L219.546 51.7591L217.484 53.8211V51.7591ZM302.37 184.414C300.651 184.872 297.215 186.27 297.215 188.194C297.215 188.504 297.209 188.809 297.204 189.103C297.166 191.097 297.137 192.662 298.933 192.662H303.744L306.15 188.194L302.37 184.414ZM293.434 207.439C294.122 205.721 297.215 203.316 298.933 203.316L299.964 206.409L297.215 210.876C297.215 212.824 297.902 216.718 300.651 216.718C303.401 216.718 301.797 219.697 300.651 221.186C300.079 221.873 298.589 223.248 297.215 223.248C295.84 223.248 295.496 221.873 295.496 221.186C294.809 221.186 293.091 220.842 291.716 219.468C290.341 218.093 292.289 217.062 293.434 216.718V210.876C293.205 210.303 292.885 208.814 293.434 207.439ZM324.364 171.698C324.364 171.698 327.528 184.122 333.987 186.82C340.302 189.457 351.17 183.383 351.17 183.383L365.948 186.82H369.384V181.665L358.731 171.698L343.953 169.636L349.108 162.763L353.232 160.357L348.765 153.484L339.142 147.985L333.987 151.766L331.581 157.264L333.987 160.357L329.176 165.856L324.364 171.698ZM330.55 214.656L324.364 210.876L327.957 208.31L331.581 210.876L330.55 214.656ZM312.336 195.411L311.305 199.535C312.222 200.108 314.054 200.91 314.054 199.535C314.054 198.161 312.909 196.213 312.336 195.411ZM355.638 194.037L339.142 195.411L346.015 199.535L353.232 207.439L365.948 206.409L363.886 199.535L355.638 194.037ZM114.041 231.84V241.119L119.884 243.181C121.144 243.524 123.389 244.555 122.289 245.93C121.189 247.305 120.227 250.169 119.884 251.429L123.32 254.865C123.32 254.865 127.149 262.479 130.194 260.708L132.256 254.865C131.568 253.147 130.194 249.504 130.194 248.679C130.194 247.855 132.714 246.503 133.974 245.93L138.441 241.119C138.9 239.973 139.541 237.682 138.441 237.682C137.342 237.682 132.485 235.62 130.194 234.589C128.819 233.673 125.795 231.84 124.695 231.84H114.041ZM74.5198 215L76.2381 208.127L78.6437 213.282L81.7367 213.969L88.2664 217.749L94.4523 225.31C93.9941 224.508 93.1464 222.63 93.4213 221.53C93.6963 220.43 95.5979 220.384 96.5143 220.499L99.951 228.403C99.951 228.403 100.223 216.549 103.044 219.124C105.324 221.205 103.044 227.028 103.044 227.028L105.45 229.09L104.075 231.84L102.013 230.809L100.982 235.62H95.827L93.0777 234.589L89.641 231.84C89.1828 230.351 88.2664 227.303 88.2664 227.028C88.2664 226.685 89.2974 224.279 89.641 224.279C89.916 224.279 88.8391 223.363 88.2664 222.904L83.1114 226.341L77.6127 222.904L71.0831 216.718C70.0521 215.687 67.9214 213.282 67.6464 211.907C67.3715 210.532 68.2192 209.501 68.6774 209.158H72.1141L74.5198 215ZM314.054 173.76H306.837L305.463 178.572L311.305 179.259L315.429 177.197L314.054 173.76ZM145.658 107.777L143.94 110.87H140.503L138.785 112.244L141.534 115.337L147.033 118.43L153.219 121.18L155.625 120.492V115.337L149.095 111.557L148.408 107.777H145.658ZM152.188 107.777L150.813 110.182L153.219 111.557H154.937L155.625 110.182L152.188 107.777ZM127.788 96.092L133.286 98.4976V94.7173L135.348 93.6863L136.036 97.4666L138.785 101.591L142.222 105.027H137.41L135.348 106.402H132.256L130.881 102.965H127.788L132.256 100.903L124.695 99.5286L127.788 96.092ZM87.9006 127.709C85.3507 122.743 75.185 134.239 75.185 134.239H67.9681L65.5624 143.518C66.3643 145.694 67.9681 150.666 67.9681 153.14C67.9681 155.615 64.7605 159.899 63.1567 161.732C62.3549 164.252 61.2322 169.636 63.1567 171.011C65.0813 172.386 70.3737 177.541 72.7794 179.946L79.309 184.758L93.0556 188.194L96.4923 197.13L125.36 202.972L128.753 208.697L140.793 203.345V197.159L142.512 198.19L145.261 201.283C145.032 201.971 144.711 203.483 145.261 204.033C145.811 204.583 147.552 205.178 148.354 205.407L152.822 206.438L151.103 211.593L158.32 210.219H162.101C164.735 211.25 170.211 213.312 171.036 213.312C171.861 213.312 170.692 215.832 170.005 217.092L165.537 218.467L162.101 219.498L165.537 224.653L162.101 228.777H159.351L155.518 229.799L155.946 230.465H154.039L152.822 232.901L148.354 231.182L147.828 230.465H146.324V247.305L140.138 254.522C140.138 254.522 134.398 258.086 136.014 260.364C137.411 262.335 142.2 260.364 142.2 260.364V295.761L155.946 298.511L166.256 293.012L175.879 290.263L181.034 283.046V274.454L194.781 269.299L201.609 266.113L205.09 264.488V279.609C205.09 279.609 212.911 280.584 215.057 277.204C216.711 274.597 215.057 269.299 215.057 269.299V264.488L216.864 264.965C216.035 264.3 215.46 263.76 215.369 263.487C215.094 262.662 217.316 260.852 218.462 260.05L227.397 259.019C231.521 260.852 239.975 264.518 240.8 264.518C241.248 264.518 243.139 263.637 245.213 262.595C244.501 261.376 243.581 260.364 243.581 260.364L245.987 254.522L254.235 260.364H263.17L274.167 257.958L277.604 254.522L275.885 249.023L280.009 242.493L288.945 249.023L299.598 244.555L311.97 239.057C311.97 239.057 318.868 234.383 317.813 230.465C316.423 225.306 304.41 233.214 304.41 233.214H296.162L286.883 222.561L277.604 202.972V197.13L280.009 188.194L286.883 184.758V179.946L280.009 171.011L284.821 167.231L296.162 171.011H309.221C312.772 170.438 319.462 168.88 317.813 167.231C316.163 165.581 308.19 157.15 304.41 153.14L299.598 143.518L286.883 136.644L284.821 130.458L292.381 127.709L299.598 136.644H314.72L327.779 143.518H337.402V136.644L321.249 130.458L309.221 118.43L288.945 110.87L263.17 97.4666L252.516 95.061L235.677 97.4666V103.653L244.612 109.151L235.677 110.87L226.054 118.43L218.15 110.87C218.15 110.87 223.231 106.735 226.054 103.653C230.146 99.185 210.245 103.653 210.245 103.653V99.8723H218.15L215.057 90.2497L229.491 93.3426L235.677 90.2497V86.4693L240.832 82.0017H254.235L240.832 75.1284L218.15 63.1001L207.84 65.1621L205.09 71.6917H197.53L189.626 68.5987H186.189C189.053 71.2335 194.781 77.0529 194.781 79.2524C194.781 81.4518 191.344 82.0017 189.626 82.0017H181.034L189.626 90.2497L181.034 93.3426L172.099 90.2497L166.256 95.061L163.507 103.653C161.903 104.569 158.764 107.295 159.039 110.87C159.314 114.444 159.154 119.69 159.039 121.867C160.07 124.731 161.514 130.458 159.039 130.458H152.853L136.014 121.867H130.859V110.87L128.453 106.402L118.831 103.653L108.177 106.402L98.8979 114.65C99.9289 117.17 101.991 122.76 101.991 124.96V140.768L108.177 143.518L112.645 136.644L116.081 140.768L125.36 145.923L116.081 149.704L120.549 154.515H128.453L142.2 149.704L152.853 153.14C154.113 154.63 155.878 157.608 152.853 157.608H142.2L132.921 161.732V171.011L120.549 174.448L116.081 171.011H108.177V161.732L101.991 154.515L96.4923 149.704L87.9006 140.768V134.239C87.9006 134.239 89.0655 129.978 87.9006 127.709ZM145.57 225.654L152.822 222.934L148.354 213.312H137.357L130.432 211.531L130.859 212.251L132.921 220.499L136.014 223.248L140.138 225.654H145.57ZM177.909 120.522L176.191 125.333C176.076 125.104 175.297 124.99 173.098 126.364C171.38 130.488 172.754 130.832 173.785 130.832H177.909C178.024 130.488 178.39 130.007 178.94 130.832C179.628 131.863 181.69 133.925 182.377 133.238L183.752 131.863C184.439 131.405 185.951 130.763 186.501 131.863C188.219 130.832 188.563 127.395 188.563 126.364C188.563 126.033 188.812 125.736 189.07 125.43C189.613 124.784 190.194 124.093 188.563 122.928C186.638 121.553 183.637 120.751 182.377 120.522H177.909ZM211.245 179.976C211.932 179.804 211.674 179.547 211.073 178.945C210.472 178.344 209.526 177.399 208.839 175.852L211.245 174.821C211.932 175.165 213.513 176.196 214.338 177.571C214.615 178.033 214.968 178.421 215.301 178.788L215.301 178.788C216.205 179.783 216.968 180.624 215.712 182.382C214.338 182.107 213.536 181.809 213.307 181.694C213.536 182.84 214.063 185.612 214.338 187.537C214.537 188.933 213.695 188.593 211.88 187.861C210.566 187.331 208.742 186.595 206.434 186.162C203.035 185.525 203.837 185.282 204.946 184.945C205.631 184.737 206.434 184.494 206.434 184.1V181.694C207.579 181.236 210.145 180.251 211.245 179.976ZM271.73 212.624L262.795 217.092C262.222 217.779 261.076 219.291 261.076 219.841V226.027C261.076 227.952 259.931 229.12 259.358 229.464C257.869 230.266 254.272 231.87 251.797 231.87C249.538 231.87 249.112 230.219 248.779 228.928C248.656 228.451 248.546 228.024 248.361 227.746C247.673 226.715 247.673 225.34 247.673 223.622C247.673 222.098 247.943 221.655 248.723 220.377L248.726 220.373L248.732 220.363L248.746 220.34C248.792 220.265 248.839 220.187 248.889 220.105C248.926 220.044 248.964 219.981 249.003 219.917L249.048 219.841C249.653 218.832 249.903 218.653 250.354 218.329C250.671 218.101 251.088 217.801 251.797 217.092C252.688 216.202 253.117 215.957 253.419 215.785C253.7 215.625 253.872 215.527 254.203 215.03C254.598 214.437 254.425 213.73 254.272 213.106C254.159 212.645 254.057 212.229 254.203 211.937C254.478 211.387 257.754 211.708 259.358 211.937C260.733 210.906 263.619 208.707 264.169 208.157C264.857 207.469 270.012 208.5 271.043 208.844C271.867 209.119 271.844 211.479 271.73 212.624ZM258.576 233.436C257.529 234.456 256.393 235.563 256.609 235.994C256.795 236.366 258.597 237.445 260.208 238.411L260.208 238.411C261.569 239.226 262.795 239.96 262.795 240.118C262.795 240.461 264.856 241.149 266.918 241.836L266.919 241.836C268.568 242.386 270.813 240.003 271.73 238.743C270.126 238.17 266.712 236.818 265.888 235.994C265.063 235.169 261.649 232.901 260.045 231.87C259.789 232.254 259.199 232.829 258.577 233.435L258.576 233.436L258.576 233.436ZM216.4 165.542C217.316 163.824 219.218 160.387 219.493 160.387C221.211 161.304 224.785 163.205 225.335 163.48C225.885 163.755 225.106 166.115 224.648 167.261L222.242 165.542C222.013 166.23 221.417 167.81 220.867 168.635C220.18 169.666 217.774 170.697 216.4 170.354C215.3 170.079 215.942 167.031 216.4 165.542ZM254.89 154.545C254.89 155.095 255.349 160.731 255.578 163.48L262.107 161.418C263.367 160.616 265.819 158.875 265.544 158.325C265.269 157.775 260.847 156.263 258.671 155.576L254.89 154.545Z" fill="black" fill-opacity="0.95"/>
</g>
<g filter="url(#filter1_bf)">
<path fill-rule="evenodd" clip-rule="evenodd" d="M120.427 280.23L141.464 279.409L139.536 281.925C139.536 281.925 137.829 284.327 133.427 284.71C128.467 285.141 122.561 288.877 122.561 288.877L121.918 286.273L114.237 286.129L112.135 277.614C111.701 275.856 113.087 269.996 113.834 267.286L115.953 262.101L107.457 258.66L110.105 252.178L100.015 250.88L85.0454 248.746L84.2319 245.45L97.371 240.168L118.679 240.446L126.441 244.358L138.909 238.076L133.329 246.447L144.459 239.911L139.354 250.205L134.685 251.941L144.265 259.776L144.942 262.523C145.09 263.12 142.818 264.774 140.746 266.284C139.96 266.856 139.202 267.407 138.617 267.872C136.912 269.226 130.128 272.493 126.95 273.957L120.427 280.23ZM197.795 249.479C196.514 249.795 190.457 251.873 187.588 252.872L191.069 254.927L195.073 253.939L203.204 249.018L197.795 249.479ZM201.524 264.586L189.37 265.255L188.557 261.958C191.158 261.025 196.762 259.059 198.363 258.664L208.373 256.193L217.324 256.316L211.392 259.82L201.524 264.586ZM220.385 253.229L219.504 249.658L221.622 244.472L225.103 246.527L227.851 249.055L220.385 253.229ZM234.719 245.903L226.698 244.385L229.828 241.573L241.556 234.016C241.383 235.613 240.679 239.07 239.24 240.124C237.801 241.179 239.273 243.127 240.189 243.97L240.208 249.211L237.122 245.31L234.312 244.255L234.719 245.903ZM307.45 115.465C305.358 115.593 301.078 115.464 300.699 113.926C300.637 113.678 300.571 113.437 300.506 113.203C300.069 111.62 299.726 110.378 301.819 109.861L307.425 108.478L311.109 111.357L307.45 115.465ZM292.498 99.6306C293.637 100.806 297.716 101.84 299.718 101.346L300.309 98.5771L296.224 95.7967C295.84 94.2402 295.873 90.9294 299.076 90.1389C302.279 89.3483 299.823 87.4288 298.194 86.5679C297.391 86.1833 295.385 85.5127 293.784 85.908C292.182 86.3033 292.053 87.5009 292.188 88.0502C291.388 88.2479 289.453 89.0167 288.123 90.5107C286.793 92.0047 289.265 92.2688 290.667 92.2141L291.82 96.8837C291.666 97.4074 291.586 98.69 292.498 99.6306ZM335.584 119.304C335.584 119.304 336.82 108.464 343.813 104.451C350.65 100.527 364.511 102.257 364.511 102.257L381.05 95.2609L385.054 94.2727L386.071 98.393L375.624 109.422L358.814 115.32L366.176 119.331L371.455 120.068L367.606 126.847L357.479 134.008L350.727 132.469L346.84 128.766L349.033 125.602L342.342 122.59L335.584 119.304ZM334.317 83.1897L327.856 87.99L332.548 89.008L336.264 85.9148L334.317 83.1897ZM316.893 103.81L314.878 100.81C315.833 100.088 317.81 98.9205 318.081 100.019C318.352 101.118 317.402 103.004 316.893 103.81ZM367.614 92.4571L348.124 96.1017L355.318 90.829L362.168 82.4361L377.186 79.6038L376.139 85.6904L367.614 92.4571ZM78.675 131.712L76.8446 124.295L83.2446 120.967C84.645 120.33 87.0575 118.86 85.5051 118.078C83.9526 117.295 82.2666 115.283 81.6176 114.374L84.9437 110.639C84.9437 110.639 87.9022 103.453 91.7992 103.993L95.3541 108.07C94.8923 109.641 94.0093 112.948 94.172 113.607C94.3347 114.267 97.5376 114.622 99.1187 114.718L105.273 117.279C106.033 118.063 107.232 119.709 105.951 120.026C104.67 120.342 99.4174 123.387 96.9515 124.87C95.5307 125.997 92.3687 128.332 91.0874 128.648L78.675 131.712ZM35.9507 156.535L39.3085 161.535L41.0944 156.723L44.5625 155.284L51.4244 150.385L57.1402 142.563C56.7645 143.336 56.1474 145.081 56.6847 145.881C57.2219 146.681 59.4465 146.171 60.4917 145.816L62.9364 138.51C62.9364 138.51 65.5921 147.907 68.3705 145.037C70.6158 142.718 66.8112 138.719 66.8112 138.719L69.2073 136.379L67.0633 134.577L64.8643 135.994L62.714 132.445L56.708 133.927L53.7081 135.542L50.2465 138.728C50.0064 140.05 49.5397 142.749 49.594 142.969C49.6618 143.243 51.3375 144.87 51.7379 144.771C52.0582 144.692 50.9844 145.734 50.4075 146.265L43.7235 145L37.995 149.328L31.6077 156.15C30.6099 157.271 28.6019 159.806 28.5528 160.984C28.5036 162.162 29.6947 162.742 30.2963 162.885L34.3003 161.897L35.9507 156.535ZM323.165 120.621L314.757 122.696L312.206 119.246L318.878 117.016L324.089 117.479L323.165 120.621ZM139.985 221.782L137.373 219.804L133.369 220.792L131.096 220.187L133.689 216.925L139.485 212.871L146.15 208.895L149.088 208.753L150.105 212.873L143.243 217.772L143.188 220.991L139.985 221.782ZM147.593 219.904L145.517 218.377L148.048 216.586L150.05 216.092L151.122 216.993L147.593 219.904ZM121.469 236.26L127.401 232.756L128.147 235.778L130.753 236.009L130.808 232.79L133.197 228.703L136.523 224.968L130.918 226.351L128.244 225.845L124.641 226.735L123.717 229.877L120.113 230.766L125.725 231.13L117.188 234.402L121.469 236.26ZM68.76 222.458C66.7686 227.16 52.6571 220.895 52.6571 220.895L44.2487 222.971L39.6154 216.246C40.1204 214.276 41.0082 209.841 40.5201 207.863C40.032 205.885 35.4497 203.383 33.2196 202.379C31.7882 200.595 29.4181 196.615 31.3892 194.963C33.3603 193.311 38.5096 187.668 40.8378 185.054L47.4964 179.331L62.8345 172.631L65.0759 164.501L97.5571 151.531L100.38 145.979L115.465 146.794L116.685 151.739L118.483 150.42L121.077 147.158C120.674 146.674 120.002 145.558 120.534 144.96C121.066 144.363 122.978 143.386 123.867 142.972L128.868 140.863L125.85 137.237L134.529 136.261L138.934 135.174C141.8 133.592 147.773 130.369 148.734 130.132C149.695 129.895 147.836 128.217 146.787 127.407L141.311 127.593L137.103 127.757L140.09 122.649L135.273 120.341L132.07 121.131L127.402 121.416L127.769 120.761L125.548 121.309L123.648 119.712L118.782 122.371L118.311 123.095L116.558 123.528L113.236 110.068L104.605 106.078C104.605 106.078 97.2153 104.88 98.6481 102.594C99.8875 100.618 105.855 100.816 105.855 100.816L98.8727 72.5229L114.346 66.3727L127.443 67.8031L139.197 67.2336L146.626 71.5198L148.321 78.387L165.354 78.5545L173.938 79.138L178.315 79.4355L175.332 67.3493C175.332 67.3493 184.252 64.3212 187.419 66.4064C189.86 68.0139 188.978 72.7241 188.978 72.7241L189.927 76.5698L191.938 75.6687C191.104 76.4383 190.54 77.0353 190.488 77.2802C190.33 78.0185 193.277 78.8262 194.769 79.1377L205.383 77.3925C209.827 74.7417 218.953 69.3807 219.914 69.1436C220.437 69.0146 222.813 69.1746 225.436 69.4116C224.846 70.5902 223.974 71.664 223.974 71.664L227.929 75.6419L236.386 68.6006L246.797 66.0313L260.084 64.7919L264.766 66.5506L263.849 71.4396L269.941 75.4729L279.064 67.6845L292.358 68.192L307.857 69.0295C307.857 69.0295 316.815 70.7819 316.358 74.2168C315.757 78.7401 300.2 75.8732 300.2 75.8732L290.591 78.2449L281.882 89.4283L274.935 107.754L276.087 112.423L280.653 118.873L289.339 119.644L290.288 123.489L284.042 132.608L290.394 134.246L302.861 127.963L318.076 124.208C322.327 123.645 330.429 122.966 328.832 124.759C327.236 126.552 319.61 135.584 315.996 139.875L312.289 148.95L298.83 158.1L297.648 163.637L306.999 163.661L313.645 154.444L331.262 150.096L345.122 140.847L356.333 138.08L357.689 143.574L340.09 153.162L328.449 166.235L306.317 178.109L278.93 196.233L266.993 201.219L246.898 204.138L245.678 199.194L255.004 192.23L244.254 193.426L231.552 190.149L223.834 198.465C223.834 198.465 230.569 200.309 234.467 201.961C240.116 204.355 216.048 206.507 216.048 206.507L216.794 209.528L226.003 207.255L224.298 215.836L240.505 209.213L248.322 209.907L249.068 212.928L255.955 215.017L271.571 211.163L257.311 220.511L233.257 236.647L220.838 237.963L216.347 233.535L207.538 235.709L198.939 240.454L194.935 241.442C197.752 238.513 203.277 232.214 202.844 230.456C202.41 228.698 198.297 229.247 196.295 229.741L186.285 232.211L194.668 223.149L184.048 223.147L174.248 228.188L166.492 226.023L161.594 219.946C159.544 219.675 155.35 218.398 154.965 215.462C154.58 212.526 153.358 208.379 152.796 206.672C153.432 204.087 153.984 199.094 151.101 199.805L143.893 201.584L125.969 213.293L119.963 214.775L122.132 223.565L120.211 227.828L109.542 232.793L96.5868 233.658L84.149 229.734C84.853 227.423 86.1527 222.362 85.7188 220.604L82.6003 207.968L89.2652 203.992L95.8263 208.201L99.0168 203.917L108.811 197.128L97.2542 196.775L101.51 191.645L110.72 189.372L127.685 189.265L139.419 183.455C140.594 181.902 142.061 179.014 138.538 179.884L126.125 182.947L114.501 182.319L112.671 174.902L97.5783 175.713L93.051 179.744L83.8418 182.017L85.6722 189.434L79.8886 196.981L74.4313 202.408L66.1839 212.02L67.4719 217.239C67.4719 217.239 69.6697 220.31 68.76 222.458ZM116.629 127.59L125.614 127.678L122.307 136.654L109.495 139.816L101.778 143.231L102.133 142.533L102.908 135.347L105.97 132.261L110.3 129.152L116.629 127.59ZM175.046 202.321L172.095 198.97C172.007 199.186 171.122 199.501 168.288 199.035C165.472 196.233 167.006 195.563 168.207 195.266L173.012 194.081C173.213 194.322 173.735 194.601 174.213 193.784C174.811 192.762 176.806 190.521 177.743 190.873L179.616 191.577C180.507 191.745 182.395 191.823 182.819 190.786C185.024 191.116 186.103 193.764 186.306 194.588C186.371 194.853 186.72 195.018 187.081 195.189C187.841 195.549 188.655 195.934 186.984 197.335C185.013 198.987 181.674 200.491 180.251 201.037L175.046 202.321ZM202.157 145.215C202.991 145.155 202.742 145.435 202.16 146.088C201.578 146.742 200.663 147.769 200.167 149.203L203.174 149.335C203.907 148.863 205.545 147.584 206.235 146.248C206.467 145.799 206.801 145.388 207.117 144.999C207.974 143.943 208.697 143.052 206.887 142.007C205.34 142.622 204.465 143.091 204.22 143.249C204.261 142.267 204.328 139.9 204.269 138.282C204.226 137.11 203.312 137.623 201.341 138.73C199.915 139.532 197.935 140.644 195.331 141.654C191.497 143.141 192.48 143.104 193.838 143.054C194.677 143.024 195.66 142.987 195.738 143.302L196.212 145.225C197.637 145.262 200.821 145.311 202.157 145.215ZM266.187 101.727L254.895 100.726C254.092 100.341 252.459 99.462 252.351 99.0225L251.131 94.0781C250.751 92.5399 249.186 91.9353 248.451 91.8253C246.558 91.6126 242.05 91.3651 239.167 92.0766C236.535 92.7262 236.365 94.1675 236.231 95.2955C236.182 95.7119 236.138 96.0856 235.977 96.361C235.379 97.3827 235.651 98.4814 235.99 99.8549C236.29 101.073 236.692 101.349 237.853 102.147L237.855 102.148C238.003 102.25 238.163 102.36 238.337 102.481C239.241 103.113 239.568 103.185 240.157 103.315C240.572 103.406 241.116 103.525 242.082 103.888C243.295 104.344 243.843 104.416 244.23 104.467C244.589 104.514 244.808 104.543 245.292 104.844C245.87 105.205 245.807 105.82 245.752 106.363C245.711 106.764 245.675 107.125 245.902 107.317C246.331 107.677 250.085 106.479 251.908 105.834C253.713 106.263 257.51 107.191 258.26 107.472C259.196 107.824 264.999 105.518 266.132 104.947C267.039 104.49 266.547 102.61 266.187 101.727ZM246.756 88.8755C245.335 88.3614 243.793 87.8033 243.96 87.3969C244.103 87.0455 245.989 85.6647 247.676 84.4299L247.676 84.4299C249.101 83.3866 250.384 82.4476 250.353 82.3219C250.285 82.0472 252.552 80.9049 254.819 79.7626C256.633 78.8488 259.718 80.1076 261.035 80.8513C259.279 81.7703 255.569 83.8323 254.77 84.7287C253.972 85.6251 250.442 88.4197 248.777 89.7049C248.403 89.4713 247.601 89.1812 246.756 88.8755ZM211.01 155.269C212.417 156.379 215.31 158.579 215.631 158.5C217.452 157.274 221.241 154.726 221.827 154.348C222.414 153.97 221.041 152.308 220.281 151.524L217.817 153.59C217.414 153.106 216.409 152.014 215.605 151.513C214.601 150.886 211.595 150.754 210.061 151.424C208.834 151.96 210.182 154.211 211.01 155.269ZM258.024 152.992C257.916 152.552 257.338 147.916 257.063 145.652L265.077 145.423C266.703 145.701 269.903 146.388 269.691 146.907C269.479 147.425 264.626 149.905 262.225 151.081L258.024 152.992Z" fill="black" fill-opacity="0.95"/>
</g>
<defs>
<filter id="filter0_bf" x="37.0941" y="8.72363" width="357.29" height="314.787" filterUnits="userSpaceOnUse" color-interpolation-filters="sRGB">
<feFlood flood-opacity="0" result="BackgroundImageFix"/>
<feGaussianBlur in="BackgroundImage" stdDeviation="12.5"/>
<feComposite in2="SourceAlpha" operator="in" result="effect1_backgroundBlur"/>
<feBlend mode="normal" in="SourceGraphic" in2="effect1_backgroundBlur" result="shape"/>
<feGaussianBlur stdDeviation="2.5" result="effect2_foregroundBlur"/>
</filter>
<filter id="filter1_bf" x="-20" y="-20.0004" width="460.254" height="350" filterUnits="userSpaceOnUse" color-interpolation-filters="sRGB">
<feFlood flood-opacity="0" result="BackgroundImageFix"/>
<feGaussianBlur in="BackgroundImage" stdDeviation="12.5"/>
<feComposite in2="SourceAlpha" operator="in" result="effect1_backgroundBlur"/>
<feBlend mode="normal" in="SourceGraphic" in2="effect1_backgroundBlur" result="shape"/>
<feGaussianBlur stdDeviation="2.5" result="effect2_foregroundBlur"/>
</filter>
</defs>
</svg>
